<svg width="84" height="84" viewBox="0 0 84 84" fill="none" xmlns="http://www.w3.org/2000/svg">
<circle cx="42" cy="42" r="42" fill="#0CAB4C"/>
<path d="M55 62.0001V62.0001C52.8642 51.1074 46.5245 41.494 37.3533 35.2409L36.9999 35" stroke="white" stroke-width="2" stroke-linecap="round"/>
<path d="M51 49.0001L51.8151 47.37C53.2351 44.5299 53.7188 41.313 53.1968 38.1809L53.1167 37.7002C52.82 35.9204 52.1491 34.2238 51.1482 32.7224V32.7224C49.5418 30.3128 47.1632 28.5217 44.4035 27.6436L43.2521 27.2772C41.9805 26.8726 40.6425 26.6667 39.3081 26.6667V26.6667C36.3245 26.6667 33.4072 25.6296 31.104 23.7328V23.7328C30.2648 23.0417 28.9999 23.6387 28.9999 24.7258V31.3334V37.8928C28.9999 39.511 29.2393 41.1203 29.7105 42.6683L30.3021 44.6121C30.9707 46.8091 32.3463 48.7237 34.215 50.0586V50.0586C35.3921 50.8993 36.7312 51.4858 38.1472 51.7808L44 53.0002" stroke="white" stroke-width="2" stroke-linecap="round"/>
</svg>
