<svg width="84" height="84" viewBox="0 0 84 84" fill="none" xmlns="http://www.w3.org/2000/svg">
<circle cx="42" cy="42" r="42" fill="#0CAB4C"/>
<path d="M60.2309 59H30.147C29.0638 59 27.9848 58.8672 26.934 58.6045C25.0858 58.1424 23.359 57.2872 21.8713 56.0971L21.3871 55.7097L19.5502 53.8727C18.5944 52.917 17.8742 51.7518 17.4468 50.4694C17.1509 49.5816 17 48.6519 17 47.7161V46.6796C17 45.3983 17.2305 44.1274 17.6803 42.9277C18.3133 41.2399 19.3629 39.7397 20.7314 38.5666L21.4879 37.9182C22.1468 37.3534 22.8996 36.9086 23.7121 36.6039L24.3894 36.35C25.9661 35.7587 27.2103 34.5145 27.8016 32.9378C28.2643 31.7039 29.1312 30.6632 30.2612 29.9852L32.9074 28.3975C33.6344 27.9613 34.3979 27.5889 35.1892 27.2845L36.2943 26.8595C39.4597 25.642 42.8932 25.294 46.2385 25.8516L46.7049 25.9293C47.3737 26.0408 48.0328 26.2045 48.676 26.4189L49.073 26.5512C50.3464 26.9757 51.5292 27.6346 52.5604 28.4939L53.2631 29.0795C53.9406 29.644 54.4939 30.3427 54.8883 31.1315C55.5645 32.4838 56.698 33.5526 58.0877 34.1482L58.2147 34.2026C59.2385 34.6414 60.1383 35.3261 60.8341 36.1959L61.9677 37.6129L62.0926 37.821C63.0776 39.4627 63.4839 41.3872 63.2464 43.287L63.1082 44.3925C63.0793 44.6238 63.0113 44.8484 62.907 45.0569L62.0051 46.8607C61.736 47.399 62.1274 48.0323 62.7292 48.0323C62.9439 48.0323 63.1498 48.1175 63.3016 48.2694L64.7293 49.697C65.0795 50.0473 65.371 50.4517 65.5925 50.8947C66.0844 51.8785 66.2082 53.0059 65.9414 54.0731L65.7959 54.655C65.4498 56.0394 64.6002 57.245 63.4128 58.0366C62.4706 58.6648 61.3634 59 60.2309 59Z" stroke="white" stroke-width="2"/>
<path d="M24.129 56.8066V56.8066C23.4334 55.4154 23.3856 53.7885 23.9983 52.3588L24.1358 52.0379C24.4918 51.2073 25.0393 50.4727 25.7335 49.8942L26.6018 49.1706C27.4602 48.4553 28.6086 48.1926 29.6927 48.4636V48.4636C30.0036 48.5413 30.3024 48.6614 30.5806 48.8204L34 50.7743L34.5652 51.1512C35.0268 51.4589 35.6451 51.128 35.6451 50.5732V50.5732C35.6451 50.3546 35.7482 50.1496 35.9204 50.0149C36.6906 49.4125 37.8387 48.4211 37.8387 48.0324C37.8387 47.7338 38.3466 47.249 38.844 46.8545C39.2489 46.5333 39.7596 46.3872 40.2764 46.3872H40.4146C41.2035 46.3872 41.9402 46.7815 42.3779 47.4379V47.4379C42.6363 47.8255 42.7742 48.281 42.7742 48.7468V49.6775V51.2091C42.7742 51.2818 42.7453 51.3516 42.6939 51.403V51.403C42.5211 51.5757 42.6435 51.8711 42.8877 51.8711H43.6876C43.8071 51.8711 43.924 51.9058 44.022 51.9743C44.5982 52.377 45.5161 53.1149 45.5161 53.5162C45.5161 54.0677 45.5803 54.7027 45.6683 55.3081C45.8678 56.68 45.7552 58.028 44.5082 58.6336C44.0668 58.848 43.6251 59.0001 43.3225 59.0001" stroke="white" stroke-width="2"/>
<path d="M62.5163 44.7419L61.8524 43.4141C60.8872 41.4838 59.0619 40.1027 56.9457 39.6794V39.6794C55.5829 39.4069 54.155 39.5512 52.8775 40.0987L52.1532 40.4091C51.4008 40.7315 50.7584 41.2659 50.3043 41.947L50.1998 42.1037C50.0036 42.398 49.7588 42.6568 49.4758 42.869L49.0399 43.196C48.2428 43.7938 47.1555 43.824 46.3265 43.2713V43.2713C46.1527 43.1555 45.9643 43.0633 45.7661 42.9973L44.1024 42.4427C43.2449 42.1568 42.3138 42.1842 41.4746 42.5199V42.5199C40.5499 42.8898 39.8061 43.606 39.4016 44.5161L37.8389 48.0323" stroke="white" stroke-width="2"/>
<path d="M17.5483 42.5483L19.6627 41.4912C20.4443 41.1003 21.2664 40.7962 22.1142 40.5843L23.858 40.1483C24.754 39.9243 25.6933 39.94 26.5814 40.1937V40.1937C28.1477 40.6412 29.4186 41.7885 30.0236 43.3009L30.1612 43.6451L31.258 46.9354L31.8064 49.129" stroke="white" stroke-width="2"/>
</svg>
