<svg width="84" height="84" viewBox="0 0 84 84" fill="none" xmlns="http://www.w3.org/2000/svg">
<circle cx="42" cy="42" r="42" fill="#0CAB4C"/>
<g clip-path="url(#clip0_92_92)">
<path d="M42.2078 15.2206L42.7911 13.8585C42.6068 13.7795 42.4083 13.7388 42.2078 13.7388C42.0072 13.7388 41.8088 13.7795 41.6245 13.8585L42.2078 15.2206ZM42.2078 68.5193L41.4735 69.8044C41.6971 69.9321 41.9502 69.9993 42.2078 69.9993C42.4654 69.9993 42.7185 69.9321 42.9421 69.8044L42.2078 68.5193ZM41.6215 13.8585L22.6916 21.9718L23.8582 24.6959L42.7911 16.5827L41.6215 13.8585ZM20 26.058V46.3648H22.961V26.058H20ZM29.6974 63.0769L41.4735 69.8044L42.9421 67.2342L31.1661 60.5038L29.6974 63.0769ZM42.9421 69.8044L54.7182 63.0769L53.2495 60.5038L41.4735 67.2342L42.9421 69.8044ZM64.4156 46.3648V26.058H61.4545V46.3707L64.4156 46.3648ZM61.721 21.9747L42.7911 13.8585L41.6245 16.5827L60.5574 24.6959L61.721 21.9747ZM64.4156 26.058C64.415 25.1888 64.1593 24.336 63.6804 23.6107C63.2014 22.8854 62.5201 22.3166 61.721 21.9747L60.5574 24.6959C60.8238 24.8102 61.0509 25.0001 61.2104 25.2423C61.3699 25.4844 61.4548 25.7681 61.4545 26.058H64.4156ZM54.7182 63.0769C57.6643 61.3934 60.113 58.9608 61.816 56.0259C63.519 53.091 64.4158 49.758 64.4156 46.3648H61.4545C61.4544 49.2356 60.6955 52.0554 59.2546 54.5384C57.8136 57.0213 55.742 59.0793 53.2495 60.5038L54.7182 63.0769ZM20 46.3648C19.9998 49.758 20.8966 53.091 22.5996 56.0259C24.3026 58.9608 26.7513 61.3934 29.6974 63.0769L31.1661 60.5038C28.6736 59.0793 26.6019 57.0213 25.161 54.5384C23.7201 52.0554 22.9611 49.2356 22.961 46.3648H20ZM22.6945 21.9747C21.8954 22.3166 21.2142 22.8854 20.7352 23.6107C20.2563 24.336 20.0006 25.1888 20 26.058H22.961C22.961 25.4658 23.3164 24.9328 23.8582 24.6959L22.6945 21.9747Z" fill="white"/>
<path d="M33.3247 39.6492L39.8019 49.6888C40.2162 50.331 41.1684 50.29 41.526 49.6146L50.7208 32.2466" stroke="white" stroke-width="3" stroke-linecap="round"/>
</g>
<defs>
<clipPath id="clip0_92_92">
<rect width="44.4156" height="57" fill="white" transform="translate(20 13)"/>
</clipPath>
</defs>
</svg>
