<svg width="84" height="84" viewBox="0 0 84 84" fill="none" xmlns="http://www.w3.org/2000/svg">
<circle cx="42" cy="42" r="42" fill="#0CAB4C"/>
<path d="M29.4502 52.0001V52.0001C28.7561 48.46 26.6957 45.3357 23.715 43.3034L23.6002 43.2251" stroke="white" stroke-width="2" stroke-linecap="round"/>
<path d="M28.15 47.775L28.4149 47.2452C28.8764 46.3222 29.0336 45.2767 28.864 44.2588L28.8379 44.1026C28.7415 43.5241 28.5235 42.9727 28.1982 42.4848V42.4848C27.6761 41.7017 26.903 41.1195 26.0061 40.8342L25.6319 40.7151C25.2187 40.5836 24.7838 40.5167 24.3501 40.5167V40.5167C23.3805 40.5167 22.4323 40.1796 21.6838 39.5632V39.5632C21.4111 39.3386 21 39.5326 21 39.8859V42.0333V44.1651C21 44.6911 21.0778 45.2141 21.2309 45.7172L21.4232 46.3489C21.6405 47.063 22.0875 47.6852 22.6949 48.119V48.119C23.0774 48.3923 23.5126 48.5829 23.9729 48.6788L25.875 49.075" stroke="white" stroke-width="2" stroke-linecap="round"/>
<path d="M35 31.9999V31.9999C35.5873 29.0044 37.3307 26.3608 39.8528 24.6412L39.95 24.575" stroke="white" stroke-width="2" stroke-linecap="round"/>
<path d="M36.0999 28.425L35.8758 27.9767C35.4852 27.1957 35.3522 26.311 35.4958 25.4497L35.5178 25.3175C35.5994 24.8281 35.7839 24.3615 36.0591 23.9486V23.9486C36.5009 23.286 37.155 22.7934 37.9139 22.552L38.2305 22.4512C38.5802 22.34 38.9482 22.2833 39.3151 22.2833V22.2833C40.1356 22.2833 40.9379 21.9981 41.5712 21.4765V21.4765C41.802 21.2865 42.1499 21.4506 42.1499 21.7496V23.5667V25.3705C42.1499 25.8155 42.084 26.258 41.9544 26.6837L41.7918 27.2183C41.6079 27.8224 41.2296 28.349 40.7157 28.716V28.716C40.392 28.9472 40.0238 29.1085 39.6344 29.1896L38.0249 29.525" stroke="white" stroke-width="2" stroke-linecap="round"/>
<path d="M56.5 61H30.5C29.9477 61 29.5 60.5523 29.5 60V33C29.5 32.4477 29.9477 32 30.5 32H44C44.5523 32 45 32.4477 45 33V43C45 43.5523 45.4477 44 46 44H47C47.5523 44 48 43.5523 48 43V18C48 17.4477 48.4477 17 49 17H56.5C57.0523 17 57.5 17.4477 57.5 18V60C57.5 60.5523 57.0523 61 56.5 61Z" stroke="white" stroke-width="2"/>
<rect x="32.5" y="34.5" width="4" height="4" stroke="white"/>
<rect x="38.5" y="34.5" width="4" height="4" stroke="white"/>
<rect x="38.5" y="40.5" width="4" height="4" stroke="white"/>
<rect x="50.5" y="20.5" width="4" height="4" stroke="white"/>
<rect x="50.5" y="26.5" width="4" height="4" stroke="white"/>
<rect x="50.5" y="32.5" width="4" height="4" stroke="white"/>
<rect x="50.5" y="38.5" width="4" height="4" stroke="white"/>
<rect x="32.5" y="40.5" width="4" height="4" stroke="white"/>
<rect x="32.5" y="46.5" width="4" height="4" stroke="white"/>
<rect x="32.5" y="52.5" width="4" height="4" stroke="white"/>
</svg>
