<svg width="84" height="84" viewBox="0 0 84 84" fill="none" xmlns="http://www.w3.org/2000/svg">
<circle cx="42" cy="42" r="42" fill="#0CAB4C"/>
<g clip-path="url(#clip0_92_265)">
<path d="M38.4908 19.9844C37.422 20.1813 37.3658 20.2938 37.3095 22.2203L37.2533 23.8797L35.9033 24.3297C35.158 24.5828 34.0049 25.061 33.3439 25.3844L32.1486 26.0032L30.9392 24.8219C30.222 24.1328 29.6033 23.6407 29.4345 23.6407C28.8017 23.6407 25.8345 26.2844 24.4424 28.0985C23.5142 29.3078 23.5424 29.4766 24.9205 30.8828L26.0595 32.05L25.3705 33.4563C24.9908 34.2157 24.5267 35.3688 24.3299 36.0016L23.9924 37.1407L22.6564 37.1547C20.1674 37.1688 20.1814 37.1547 19.9564 39.6438C19.7595 41.8375 19.9564 44.8047 20.3361 45.3813C20.547 45.7047 20.6314 45.7188 21.9955 45.7328C23.3595 45.7328 23.908 45.775 23.9783 45.8875C24.0064 45.9157 24.1892 46.4641 24.3861 47.125C24.583 47.786 25.0611 48.925 25.4408 49.6844L26.1299 51.0344L25.0189 52.1453C24.4142 52.75 23.8799 53.3828 23.8236 53.5657C23.7111 54.0016 24.2595 54.775 25.8064 56.3782C27.3814 58.0094 29.0267 59.3594 29.4627 59.3594C29.6877 59.3594 30.1517 58.9938 30.897 58.2344C31.5017 57.6157 32.0502 57.1094 32.1064 57.1094C32.1767 57.1094 32.8095 57.3907 33.5267 57.7422C34.2439 58.0797 35.397 58.5438 36.0861 58.7688L37.3517 59.1907L37.3939 60.8922C37.4361 63.0157 37.3939 62.9735 39.883 63.1844C41.9642 63.3672 44.8189 63.1844 45.3814 62.8047C45.6908 62.6078 45.7189 62.5094 45.747 60.8922L45.7892 59.1907L47.0549 58.7688C47.758 58.5438 48.897 58.0797 49.6142 57.7422C50.3314 57.3907 50.9642 57.1094 51.0205 57.1094C51.0908 57.1094 51.6392 57.6157 52.258 58.2344C52.9752 58.9516 53.4814 59.3594 53.6783 59.3594C54.1142 59.3594 55.5767 58.2344 57.0392 56.7438C58.6142 55.1547 59.4299 54.0157 59.3174 53.5657C59.2611 53.3828 58.7267 52.75 58.122 52.1313L56.997 51.0344L57.6158 49.8813C57.9392 49.2625 58.4455 48.0813 58.7127 47.2797L59.1908 45.8313L60.7377 45.8453C62.172 45.8735 62.3127 45.8453 62.6502 45.55C62.9595 45.2688 63.0299 45.0438 63.1705 43.8907C63.4377 41.711 63.1283 37.9 62.6642 37.436C62.4955 37.2672 62.0736 37.211 60.808 37.1828L59.1767 37.1547L58.6564 35.7063C58.3752 34.9047 57.883 33.7516 57.5595 33.1328L56.9689 32.0078L58.1642 30.8125C58.9236 30.0532 59.3595 29.5047 59.3595 29.3078C59.3595 28.436 54.5642 23.6407 53.6924 23.6407C53.4955 23.6407 52.9189 24.0907 52.1595 24.8078L50.9361 25.975L49.572 25.3C48.8267 24.9203 47.6595 24.4563 46.9705 24.2453L45.7189 23.8657V22.2485C45.7189 21.3485 45.6627 20.5469 45.6064 20.4625C45.3111 20.0125 44.7767 19.9282 41.9924 19.9C40.4455 19.8719 38.8705 19.9141 38.4908 19.9844ZM43.3564 21.6157L43.8627 21.7L43.9189 23.2891C43.9752 25.1735 44.0595 25.3422 45.2689 25.6094C46.5908 25.9047 48.2924 26.5657 49.572 27.311C50.233 27.6907 50.922 28 51.0767 28C51.2595 28 51.8361 27.55 52.5533 26.861L53.7205 25.7078L54.2549 26.1438C54.5502 26.3688 55.3517 27.1422 56.0267 27.8453L57.2783 29.1391L56.1392 30.3203C54.8736 31.6422 54.7892 31.8953 55.3377 32.7532C56.2095 34.1453 56.9127 35.8469 57.5174 38.0828C57.6158 38.4203 57.7986 38.7438 57.9533 38.8282C58.0939 38.8985 58.9095 38.9688 59.7533 38.9688H61.2861L61.3845 39.6157C61.497 40.4594 61.497 42.5407 61.3845 43.3844L61.2861 44.0313H59.6408C57.7002 44.0313 57.7002 44.0313 57.3205 45.5078C56.983 46.8438 56.2377 48.6297 55.5627 49.7547C54.6627 51.2313 54.6486 51.161 56.0408 52.5953L57.2642 53.8328L56.0549 55.1125C55.3799 55.8157 54.5924 56.6032 54.283 56.8422L53.7064 57.2922L52.5533 56.1391C51.7658 55.3516 51.3017 55 51.0767 55C50.8939 55 50.2611 55.2813 49.6705 55.6188C48.5314 56.2938 46.9283 56.9547 45.7892 57.236C43.9049 57.7141 43.8908 57.7422 43.8908 59.8516V61.3L42.6955 61.3985C42.0345 61.4547 40.9658 61.4547 40.3049 61.3985L39.1095 61.3V59.6969C39.1095 57.7703 39.0674 57.686 37.5486 57.3344C36.283 57.025 34.4267 56.2657 33.2174 55.5344C32.7392 55.2391 32.1767 55 31.9799 55C31.7267 55 31.2908 55.3235 30.447 56.1391L29.2799 57.2782L28.6189 56.7438C28.2674 56.4485 27.4658 55.661 26.8611 55.0141L25.7502 53.8188L26.9595 52.5813C28.3517 51.161 28.3377 51.2313 27.4377 49.7547C26.7627 48.6297 26.0174 46.8438 25.6799 45.5078C25.3002 44.0313 25.3002 44.0313 23.3595 44.0313H21.7142L21.6158 43.3844C21.5033 42.5407 21.5033 40.4594 21.6158 39.6157L21.7142 38.9688H23.3595C25.272 38.9688 25.3283 38.9407 25.6095 37.7032C25.9189 36.3672 26.5799 34.6938 27.3111 33.4282C27.6908 32.7672 28.0002 32.0782 28.0002 31.8953C28.0002 31.6844 27.6205 31.2063 26.8752 30.461C26.2564 29.8422 25.7502 29.2938 25.7502 29.2375C25.7502 29.0828 28.0986 26.65 28.7314 26.1438L29.2799 25.7078L30.447 26.861C31.1783 27.5641 31.7408 28 31.9236 28C32.0924 28 32.7814 27.6907 33.4564 27.2969C34.7783 26.5516 36.4236 25.8907 37.7455 25.5953C38.9689 25.3282 39.1095 25.0891 39.1095 23.2047V21.686L39.5033 21.6297C40.122 21.5313 42.7939 21.5313 43.3564 21.6157Z" fill="white"/>
<path d="M39.2501 30.3203C36.8032 30.8406 34.8485 31.9516 33.1048 33.8078C31.9938 35.0031 31.2204 36.3109 30.6579 37.9844C30.2782 39.0953 30.1938 39.5875 30.1376 40.9656C30.1095 41.9078 30.1516 43.0047 30.236 43.5531C30.911 47.4062 33.8782 50.8656 37.6891 52.2437C39.6579 52.9469 42.386 53.0734 44.3829 52.5391C46.5345 51.9625 48.9673 50.3875 50.3032 48.7C55.436 42.2172 52.4688 32.7953 44.5657 30.5172C43.2438 30.1375 40.5579 30.0391 39.2501 30.3203ZM43.8626 32.1625C46.3938 32.7391 48.8407 34.6937 50.0782 37.1547C50.8657 38.7016 51.1048 39.7422 51.0907 41.5703C51.0907 44.2703 50.2329 46.2812 48.2501 48.2641C47.2938 49.2344 46.8298 49.5859 45.8595 50.05C44.2563 50.8375 43.286 51.0625 41.5001 51.0625C38.7298 51.0625 36.7188 50.2328 34.736 48.25C32.7813 46.3234 31.8813 44.1578 31.8954 41.4297C31.9095 37.7172 33.8782 34.5672 37.2532 32.8656C39.2782 31.8391 41.472 31.6141 43.8626 32.1625Z" fill="white"/>
<path d="M46.3375 37.4359C46.1688 37.4922 44.6359 38.8844 42.9063 40.5156L39.7703 43.4969L38.2797 42.0062C37.1266 40.8672 36.7047 40.5156 36.4094 40.5156C35.9172 40.5156 35.5938 40.8531 35.5938 41.3594C35.5938 41.6828 35.9453 42.1328 37.4359 43.6656C39.0391 45.325 39.3344 45.5781 39.7281 45.5781C40.1078 45.5781 40.6281 45.1281 43.7781 42.1328C45.7609 40.2484 47.4203 38.5609 47.4766 38.4062C47.5891 38.0547 47.2516 37.4922 46.8859 37.3937C46.7453 37.3516 46.4922 37.3656 46.3375 37.4359Z" fill="white"/>
</g>
<defs>
<clipPath id="clip0_92_265">
<rect width="45" height="45" fill="white" transform="translate(19 19)"/>
</clipPath>
</defs>
</svg>
