<svg width="84" height="84" viewBox="0 0 84 84" fill="none" xmlns="http://www.w3.org/2000/svg">
<circle cx="42" cy="42" r="42" fill="#0CAB4C"/>
<path fill-rule="evenodd" clip-rule="evenodd" d="M49.5598 18.3565C47.2561 17.6307 44.804 17.2393 42.2606 17.2393C28.8618 17.2393 18 28.1011 18 41.4998C18 48.5801 21.0331 54.952 25.8707 59.3871L27.4126 56.7166C23.4563 52.8556 21 47.4646 21 41.4998C21 29.7579 30.5187 20.2393 42.2606 20.2393C44.2556 20.2393 46.1865 20.5141 48.0175 21.0279L49.5598 18.3565ZM36.8262 62.0595C38.5609 62.5168 40.3823 62.7604 42.2606 62.7604C54.0024 62.7604 63.5211 53.2417 63.5211 41.4998C63.5211 35.6553 61.1628 30.3616 57.3459 26.5184L58.8933 23.8383C63.5894 28.2625 66.5211 34.5388 66.5211 41.4998C66.5211 54.8986 55.6593 65.7604 42.2606 65.7604C39.8334 65.7604 37.4895 65.404 35.2783 64.7406L36.8262 62.0595Z" fill="white"/>
<path d="M33.3027 55.0514V55.0514C34.7438 47.7021 39.0211 41.216 45.209 36.997L45.4474 36.8345" stroke="white" stroke-width="3" stroke-linecap="round"/>
<path d="M36.0016 46.2804L35.4517 45.1806C34.4936 43.2644 34.1673 41.0939 34.5195 38.9807L34.5735 38.6564C34.7737 37.4555 35.2263 36.3108 35.9016 35.2979V35.2979C36.9855 33.6721 38.5903 32.4636 40.4523 31.8712L41.2291 31.624C42.0871 31.351 42.9898 31.2121 43.8901 31.2121V31.2121C45.9032 31.2121 47.8715 30.5123 49.4254 29.2326V29.2326C49.9916 28.7663 50.8451 29.1691 50.8451 29.9026V34.3607V38.7863C50.8451 39.8781 50.6835 40.9639 50.3656 42.0084L49.9665 43.3198C49.5154 44.8021 48.5873 46.094 47.3264 46.9946V46.9946C46.5323 47.5618 45.6288 47.9575 44.6734 48.1566L40.7246 48.9792" stroke="white" stroke-width="3" stroke-linecap="round"/>
<path d="M46.5527 15.7466L49.5386 18.7325L46.5527 21.7184" stroke="white" stroke-width="3.61364" stroke-linecap="round"/>
<path d="M38.9014 67.2534L35.9155 64.2675L38.9014 61.2816" stroke="white" stroke-width="3.61364" stroke-linecap="round"/>
</svg>
