<svg width="84" height="84" viewBox="0 0 84 84" fill="none" xmlns="http://www.w3.org/2000/svg">
<circle cx="42" cy="42" r="42" fill="#0CAB4C"/>
<path d="M42.9748 57.583V57.583C39.6745 50.8443 33.8531 45.6765 26.7708 43.1981L26.4979 43.1026" stroke="white" stroke-width="2" stroke-linecap="round"/>
<path d="M38.0887 49.7948L38.3357 48.5878C38.766 46.485 38.5191 44.2999 37.6302 42.3462L37.4938 42.0463C36.9887 40.9361 36.2538 39.9456 35.3376 39.1405V39.1405C33.8672 37.8482 32.0007 37.0948 30.0451 37.0043L29.2292 36.9665C28.3282 36.9248 27.4185 37.0244 26.5472 37.2579V37.2579C24.5991 37.7799 22.5128 37.6131 20.6771 36.7776V36.7776C20.0082 36.4732 19.2867 37.0843 19.4769 37.7941L20.633 42.1085L21.7806 46.3914C22.0637 47.448 22.5016 48.4569 23.0801 49.3853L23.8064 50.5509C24.6274 51.8685 25.8605 52.878 27.3143 53.4226V53.4226C28.2299 53.7656 29.2069 53.9143 30.1831 53.8592L34.2179 53.6313" stroke="white" stroke-width="2" stroke-linecap="round"/>
<path d="M43.5 57.4653V53.1082C43.5 47.9083 45.6311 42.9357 49.3966 39.3496L54 34.9653" stroke="white" stroke-width="2"/>
<path d="M54.907 27.3241C55.6538 26.0317 57.307 25.5895 58.5993 26.3363C59.8917 27.0832 60.334 28.7363 59.5871 30.0287C59.1896 30.7165 58.1955 31.7676 57.0987 32.5369C56.5544 32.9187 56.0161 33.2085 55.5452 33.3531C55.0645 33.5008 54.7424 33.472 54.5425 33.3565C54.3426 33.241 54.1568 32.9763 54.0447 32.4861C53.9349 32.0058 53.9172 31.3947 53.9762 30.7325C54.0951 29.3981 54.5095 28.0119 54.907 27.3241Z" stroke="white" stroke-width="1.08108"/>
<path d="M48.1454 39.0247C47.3985 40.317 47.8408 41.9702 49.1331 42.717C50.4255 43.4639 52.0786 43.0216 52.8255 41.7292C53.223 41.0414 53.6373 39.6552 53.7562 38.3208C53.8152 37.6586 53.7976 37.0475 53.6877 36.5673C53.5756 36.0771 53.3899 35.8123 53.19 35.6968C52.9901 35.5813 52.668 35.5526 52.1873 35.7002C51.7164 35.8448 51.1781 36.1346 50.6338 36.5164C49.537 37.2857 48.5428 38.3369 48.1454 39.0247Z" fill="#0CAB4C" stroke="white" stroke-width="1.08108"/>
<path d="M54.1252 40.0542C54.3726 41.0183 55.291 41.5604 56.1307 41.3449C56.9703 41.1294 57.514 40.2119 57.2666 39.2478C57.1331 38.728 56.6809 37.8384 56.1117 37.1125C55.8297 36.7528 55.5423 36.4639 55.2815 36.2858C55.0091 36.0998 54.8537 36.092 54.7867 36.1092C54.7197 36.1264 54.5873 36.208 54.4381 36.5023C54.2953 36.784 54.1827 37.1756 54.1088 37.6266C53.9596 38.5369 53.9917 39.5344 54.1252 40.0542Z" stroke="white" stroke-width="1.08108"/>
<path d="M60.2551 34.7505C61.2166 34.4933 61.7494 33.5695 61.5254 32.732C61.3014 31.8946 60.3785 31.3602 59.4169 31.6174C58.8984 31.7561 58.0135 32.2174 57.2934 32.7939C56.9366 33.0795 56.6506 33.3698 56.4751 33.6324C56.2919 33.9067 56.2857 34.0621 56.3036 34.129C56.3215 34.1958 56.4044 34.3274 56.7002 34.4735C56.9833 34.6135 57.376 34.7222 57.8278 34.7915C58.7395 34.9314 59.7366 34.8892 60.2551 34.7505Z" stroke="white" stroke-width="1.08108"/>
<path d="M53.9364 28.0518C53.7674 27.2073 53.0016 26.7031 52.2758 26.8483C51.5501 26.9935 51.0372 27.7535 51.2062 28.598C51.2983 29.0585 51.655 29.8669 52.125 30.5378C52.3576 30.8698 52.5963 31.1363 52.8142 31.3029C53.0431 31.4781 53.1645 31.481 53.2012 31.4736C53.238 31.4663 53.3488 31.4169 53.4928 31.1672C53.6298 30.9296 53.7475 30.5917 53.8345 30.1958C54.0103 29.3957 54.0285 28.5122 53.9364 28.0518Z" stroke="white" stroke-width="1.08108"/>
<path d="M48.41 34.0874C47.4328 34.2767 46.8366 35.1609 47.0014 36.012C47.1662 36.8631 48.0494 37.4608 49.0267 37.2715C49.5536 37.1695 50.4686 36.7713 51.2274 36.2467C51.6033 35.9867 51.9089 35.7172 52.1023 35.4675C52.3043 35.2068 52.3214 35.0521 52.3082 34.9842C52.2951 34.9163 52.2215 34.7792 51.9367 34.6127C51.6641 34.4533 51.28 34.3173 50.8342 34.2165C49.9345 34.0131 48.9369 33.9854 48.41 34.0874Z" stroke="white" stroke-width="1.08108"/>
<path d="M61.9059 35.7393C63.1983 36.4861 63.6405 38.1392 62.8937 39.4316C62.1468 40.724 60.4937 41.1662 59.2013 40.4194C58.5135 40.0219 57.4624 39.0278 56.693 37.9309C56.3113 37.3867 56.0215 36.8483 55.8768 36.3774C55.7292 35.8967 55.758 35.5746 55.8735 35.3747C55.989 35.1748 56.2537 34.9891 56.7439 34.877C57.2242 34.7672 57.8353 34.7495 58.4975 34.8085C59.8319 34.9274 61.2181 35.3418 61.9059 35.7393Z" stroke="white" stroke-width="1.08108"/>
<path d="M47.0331 33.3872C45.7407 32.6404 45.2984 30.9872 46.0453 29.6948C46.7921 28.4025 48.4453 27.9602 49.7377 28.7071C50.4255 29.1045 51.4766 30.0987 52.2459 31.1955C52.6277 31.7398 52.9175 32.2781 53.0621 32.749C53.2098 33.2297 53.181 33.5518 53.0655 33.7517C52.95 33.9516 52.6852 34.1374 52.195 34.2495C51.7148 34.3593 51.1037 34.377 50.4415 34.318C49.1071 34.199 47.7209 33.7847 47.0331 33.3872Z" stroke="white" stroke-width="1.08108"/>
<circle cx="54.1006" cy="34.6618" r="1.35135" transform="rotate(30.0231 54.1006 34.6618)" fill="#0CAB4C" stroke="white" stroke-width="1.08108"/>
</svg>
